<svg width="320" height="180" viewBox="0 0 320 180" fill="none" xmlns="http://www.w3.org/2000/svg">
<path d="M88.3392 81.8873C96.0609 69.5915 111.984 45 113.901 45C116.297 45 74.7597 103.183 48 153" stroke="black" stroke-width="4" stroke-linecap="round" data-duration="100"/>
<path d="M38.0415 78.1549C34.9006 76.6234 28.6974 71.6461 29.0115 63.9886C29.4041 54.4168 47.8567 27.6157 98.5031 26.0842C149.15 24.5527 171.921 44.0792 153.861 70.8803C135.801 97.6814 102.429 112.613 73.3762 112.996C44.3232 113.379 49.8197 83.5151 117.348 107.636" stroke="black" stroke-width="4" stroke-linecap="round" data-duration="300"/>
<path d="M151.276 90.2076C147.724 94.3732 141.899 103.791 147.013 108.138C153.407 113.571 172.588 93.4677 168.325 90.7509C164.063 88.0342 149.145 111.398 166.194 109.768C183.244 108.138 201.892 93.4677 201.892 91.8376C201.892 90.2076 198.695 86.4042 199.228 100.531C199.392 104.878 196.564 116.35 191.845 113.571C187.126 110.793 203.49 91.2943 212.015 90.751C220.54 90.2076 218.408 97.2711 222.671 102.705C226.933 108.138 256.237 101.618 254.639 91.8376C253.04 82.0574 220.007 114.658 248.245 111.398C270.836 108.79 287.494 98.3578 293 93.4677" stroke="black" stroke-width="4" stroke-linecap="round" data-duration="600"/>
</svg>
